<svg width="720" height="440" viewBox="0 0 720 440" fill="none" xmlns="http://www.w3.org/2000/svg">
  <defs>
    <linearGradient id="bgA" x1="68" y1="44" x2="620" y2="392" gradientUnits="userSpaceOnUse">
      <stop stop-color="#071521"/>
      <stop offset="0.5" stop-color="#0B2232"/>
      <stop offset="1" stop-color="#09141F"/>
    </linearGradient>
    <linearGradient id="screenA" x1="150" y1="120" x2="560" y2="284" gradientUnits="userSpaceOnUse">
      <stop stop-color="#102A3D"/>
      <stop offset="1" stop-color="#081723"/>
    </linearGradient>
    <linearGradient id="accentA" x1="152" y1="248" x2="538" y2="154" gradientUnits="userSpaceOnUse">
      <stop stop-color="#2FD7E5"/>
      <stop offset="1" stop-color="#FF63B0"/>
    </linearGradient>
    <filter id="glowA" x="0" y="0" width="720" height="440" filterUnits="userSpaceOnUse" color-interpolation-filters="sRGB">
      <feGaussianBlur stdDeviation="30"/>
    </filter>
  </defs>
  <rect width="720" height="440" rx="32" fill="url(#bgA)"/>
  <ellipse cx="564" cy="98" rx="94" ry="62" fill="#FF63B0" fill-opacity="0.18" filter="url(#glowA)"/>
  <ellipse cx="164" cy="356" rx="128" ry="78" fill="#2FD7E5" fill-opacity="0.12" filter="url(#glowA)"/>
  <rect x="72" y="92" width="576" height="256" rx="28" fill="#07131D" fill-opacity="0.72" stroke="#77E4F1" stroke-opacity="0.18"/>
  <rect x="118" y="118" width="430" height="172" rx="20" fill="url(#screenA)" stroke="#77E4F1" stroke-opacity="0.14"/>
  <path d="M148 236C188 210 214 220 248 184C276 154 308 150 340 170C376 193 402 204 430 186C464 164 494 172 520 206" stroke="url(#accentA)" stroke-width="7" stroke-linecap="round"/>
  <path d="M148 250C188 224 214 234 248 198C276 168 308 164 340 184C376 207 402 218 430 200C464 178 494 186 520 220" stroke="#7DECF6" stroke-opacity="0.35" stroke-width="2.5" stroke-linecap="round" stroke-dasharray="6 10"/>
  <circle cx="248" cy="184" r="8" fill="#2FD7E5"/>
  <circle cx="340" cy="170" r="8" fill="#B4F6FB"/>
  <circle cx="430" cy="186" r="8" fill="#FF63B0"/>
  <rect x="574" y="132" width="46" height="136" rx="16" fill="#0B1B27" stroke="#77E4F1" stroke-opacity="0.14"/>
  <rect x="588" y="158" width="18" height="76" rx="9" fill="url(#accentA)" fill-opacity="0.88"/>
  <rect x="118" y="314" width="90" height="8" rx="4" fill="#1F3B4E"/>
  <rect x="118" y="330" width="56" height="8" rx="4" fill="#163244"/>
  <rect x="234" y="314" width="92" height="8" rx="4" fill="#1F3B4E"/>
  <rect x="234" y="330" width="64" height="8" rx="4" fill="#163244"/>
  <rect x="350" y="314" width="94" height="8" rx="4" fill="#1F3B4E"/>
  <rect x="350" y="330" width="60" height="8" rx="4" fill="#163244"/>
  <circle cx="182" cy="378" r="20" fill="#0B1B27" stroke="#77E4F1" stroke-opacity="0.18"/>
  <rect x="146" y="394" width="72" height="16" rx="8" fill="#0B1B27" stroke="#77E4F1" stroke-opacity="0.12"/>
  <circle cx="316" cy="378" r="20" fill="#0B1B27" stroke="#77E4F1" stroke-opacity="0.18"/>
  <rect x="280" y="394" width="72" height="16" rx="8" fill="#0B1B27" stroke="#77E4F1" stroke-opacity="0.12"/>
  <circle cx="450" cy="378" r="20" fill="#0B1B27" stroke="#77E4F1" stroke-opacity="0.18"/>
  <rect x="414" y="394" width="72" height="16" rx="8" fill="#0B1B27" stroke="#77E4F1" stroke-opacity="0.12"/>
</svg>