<svg width="720" height="440" viewBox="0 0 720 440" fill="none" xmlns="http://www.w3.org/2000/svg">
  <defs>
    <linearGradient id="bgC" x1="58" y1="46" x2="622" y2="392" gradientUnits="userSpaceOnUse">
      <stop stop-color="#071521"/>
      <stop offset="0.56" stop-color="#0A2131"/>
      <stop offset="1" stop-color="#08121C"/>
    </linearGradient>
    <linearGradient id="rackC" x1="166" y1="118" x2="520" y2="312" gradientUnits="userSpaceOnUse">
      <stop stop-color="#0F2738"/>
      <stop offset="1" stop-color="#091722"/>
    </linearGradient>
    <linearGradient id="lineC" x1="198" y1="264" x2="516" y2="176" gradientUnits="userSpaceOnUse">
      <stop stop-color="#2FD7E5"/>
      <stop offset="1" stop-color="#FF63B0"/>
    </linearGradient>
  </defs>
  <rect width="720" height="440" rx="32" fill="url(#bgC)"/>
  <ellipse cx="596" cy="92" rx="88" ry="58" fill="#FF63B0" fill-opacity="0.16"/>
  <ellipse cx="116" cy="368" rx="126" ry="76" fill="#2FD7E5" fill-opacity="0.1"/>
  <rect x="102" y="88" width="516" height="264" rx="30" fill="#06131D" stroke="#77E4F1" stroke-opacity="0.14"/>
  <rect x="130" y="116" width="182" height="208" rx="20" fill="url(#rackC)" stroke="#77E4F1" stroke-opacity="0.12"/>
  <rect x="334" y="116" width="150" height="208" rx="20" fill="url(#rackC)" stroke="#77E4F1" stroke-opacity="0.12"/>
  <rect x="506" y="116" width="84" height="208" rx="20" fill="#0D1D2A" stroke="#77E4F1" stroke-opacity="0.12"/>
  <rect x="156" y="146" width="128" height="18" rx="9" fill="#122D40"/>
  <rect x="156" y="178" width="128" height="18" rx="9" fill="#122D40"/>
  <rect x="156" y="210" width="128" height="18" rx="9" fill="#122D40"/>
  <rect x="156" y="242" width="128" height="18" rx="9" fill="#122D40"/>
  <rect x="156" y="274" width="128" height="18" rx="9" fill="#122D40"/>
  <rect x="360" y="150" width="98" height="98" rx="22" fill="#081723" stroke="#FF63B0" stroke-opacity="0.26"/>
  <path d="M382 216L402 196L422 214L452 180" stroke="url(#lineC)" stroke-width="7" stroke-linecap="round" stroke-linejoin="round"/>
  <circle cx="382" cy="216" r="6" fill="#2FD7E5"/>
  <circle cx="422" cy="214" r="6" fill="#A5F4FA"/>
  <circle cx="452" cy="180" r="6" fill="#FF63B0"/>
  <rect x="360" y="266" width="98" height="28" rx="14" fill="#122D40"/>
  <rect x="526" y="152" width="44" height="16" rx="8" fill="#2FD7E5" fill-opacity="0.68"/>
  <rect x="526" y="184" width="44" height="16" rx="8" fill="#FF63B0" fill-opacity="0.6"/>
  <rect x="526" y="216" width="44" height="16" rx="8" fill="#2FD7E5" fill-opacity="0.68"/>
  <rect x="526" y="248" width="44" height="16" rx="8" fill="#FF63B0" fill-opacity="0.6"/>
  <path d="M182 354H538" stroke="#163244" stroke-width="10" stroke-linecap="round"/>
  <circle cx="240" cy="354" r="18" fill="#0C1A25" stroke="#77E4F1" stroke-opacity="0.14"/>
  <circle cx="360" cy="354" r="18" fill="#0C1A25" stroke="#77E4F1" stroke-opacity="0.14"/>
  <circle cx="480" cy="354" r="18" fill="#0C1A25" stroke="#77E4F1" stroke-opacity="0.14"/>
</svg>