<svg width="720" height="440" viewBox="0 0 720 440" fill="none" xmlns="http://www.w3.org/2000/svg">
  <defs>
    <linearGradient id="bgB" x1="74" y1="48" x2="612" y2="384" gradientUnits="userSpaceOnUse">
      <stop stop-color="#08131E"/>
      <stop offset="0.55" stop-color="#0B2030"/>
      <stop offset="1" stop-color="#07121C"/>
    </linearGradient>
    <linearGradient id="panelB" x1="116" y1="84" x2="538" y2="332" gradientUnits="userSpaceOnUse">
      <stop stop-color="#0F2738"/>
      <stop offset="1" stop-color="#091722"/>
    </linearGradient>
    <linearGradient id="chatB" x1="164" y1="132" x2="522" y2="264" gradientUnits="userSpaceOnUse">
      <stop stop-color="#2FD7E5"/>
      <stop offset="1" stop-color="#FF63B0"/>
    </linearGradient>
  </defs>
  <rect width="720" height="440" rx="32" fill="url(#bgB)"/>
  <circle cx="572" cy="102" r="82" fill="#FF63B0" fill-opacity="0.14"/>
  <circle cx="128" cy="356" r="110" fill="#2FD7E5" fill-opacity="0.1"/>
  <rect x="92" y="78" width="536" height="284" rx="30" fill="#06131D" stroke="#77E4F1" stroke-opacity="0.16"/>
  <rect x="116" y="102" width="490" height="236" rx="24" fill="url(#panelB)"/>
  <rect x="150" y="132" width="154" height="30" rx="15" fill="#102A3B"/>
  <rect x="150" y="180" width="372" height="58" rx="22" fill="#0C1D2A" stroke="#77E4F1" stroke-opacity="0.12"/>
  <rect x="166" y="198" width="182" height="10" rx="5" fill="#264556"/>
  <rect x="166" y="216" width="140" height="10" rx="5" fill="#1B3747"/>
  <rect x="248" y="256" width="274" height="56" rx="22" fill="#132332" stroke="#FF63B0" stroke-opacity="0.22"/>
  <rect x="270" y="274" width="148" height="10" rx="5" fill="#EC86BF" fill-opacity="0.68"/>
  <rect x="270" y="292" width="200" height="10" rx="5" fill="#89EEF7" fill-opacity="0.7"/>
  <path d="M568 152L588 172L568 192" stroke="url(#chatB)" stroke-width="8" stroke-linecap="round" stroke-linejoin="round"/>
  <path d="M548 192L528 172L548 152" stroke="url(#chatB)" stroke-width="8" stroke-linecap="round" stroke-linejoin="round"/>
  <rect x="416" y="132" width="106" height="26" rx="13" fill="#102A3B"/>
  <rect x="182" y="354" width="354" height="16" rx="8" fill="#0C1A25" stroke="#77E4F1" stroke-opacity="0.12"/>
  <rect x="206" y="378" width="116" height="16" rx="8" fill="#102A3B"/>
  <rect x="344" y="378" width="168" height="16" rx="8" fill="#132332"/>
</svg>